<svg xmlns="http://www.w3.org/2000/svg" xmlns:xlink="http://www.w3.org/1999/xlink" viewBox="0 0 264.3 77.4"><defs><style>.cls-1{fill:#010000;}.cls-2{fill:url(#Degradado_sin_nombre_35);}.cls-3{fill:url(#Degradado_sin_nombre_34);}.cls-4{fill:url(#Degradado_sin_nombre_26);}.cls-5{fill:url(#Degradado_sin_nombre_28);}.cls-6{fill:url(#Degradado_sin_nombre_21);}.cls-7{fill:#fff;}.cls-8{fill:url(#Degradado_sin_nombre_21-2);}.cls-9{fill:url(#Degradado_sin_nombre_21-3);}</style><linearGradient id="Degradado_sin_nombre_35" x1="4.82" y1="43.15" x2="9.22" y2="35.52" gradientUnits="userSpaceOnUse"><stop offset="0" stop-color="#fff" stop-opacity="0"/><stop offset="0.46" stop-color="#ddd" stop-opacity="0.1"/><stop offset="0.82" stop-color="#737372" stop-opacity="0.43"/><stop offset="1" stop-color="#1d1e1c" stop-opacity="0.7"/></linearGradient><linearGradient id="Degradado_sin_nombre_34" x1="4.82" y1="7497.72" x2="9.22" y2="7490.09" gradientTransform="matrix(1, 0, 0, -1, 0, 7540.8)" gradientUnits="userSpaceOnUse"><stop offset="0" stop-color="#fff" stop-opacity="0"/><stop offset="0.49" stop-color="#d7d8d7" stop-opacity="0.1"/><stop offset="0.88" stop-color="#5b5c5b" stop-opacity="0.43"/><stop offset="1" stop-color="#1d1e1c" stop-opacity="0.6"/></linearGradient><linearGradient id="Degradado_sin_nombre_26" x1="38.68" y1="72.75" x2="30.84" y2="68.22" gradientUnits="userSpaceOnUse"><stop offset="0" stop-color="#fff" stop-opacity="0"/><stop offset="0.65" stop-color="#b8b8b7" stop-opacity="0.09"/><stop offset="1" stop-color="#1d1e1c" stop-opacity="0.3"/></linearGradient><linearGradient id="Degradado_sin_nombre_28" x1="39.31" y1="69.77" x2="45.17" y2="66.39" gradientUnits="userSpaceOnUse"><stop offset="0" stop-color="#fff" stop-opacity="0"/><stop offset="0.69" stop-color="#7e7f7e" stop-opacity="0.23"/><stop offset="1" stop-color="#1d1e1c" stop-opacity="0.4"/></linearGradient><linearGradient id="Degradado_sin_nombre_21" x1="56.56" y1="20.82" x2="42.82" y2="34.56" gradientUnits="userSpaceOnUse"><stop offset="0" stop-color="#fff" stop-opacity="0"/><stop offset="0.62" stop-color="#d3d3d3" stop-opacity="0.08"/><stop offset="0.95" stop-color="#3f403e" stop-opacity="0.34"/><stop offset="1" stop-color="#1d1e1c" stop-opacity="0.4"/></linearGradient><linearGradient id="Degradado_sin_nombre_21-2" x1="46.55" y1="16.79" x2="23.65" y2="3.57" xlink:href="#Degradado_sin_nombre_21"/><linearGradient id="Degradado_sin_nombre_21-3" x1="62.05" y1="36.23" x2="77.3" y2="51.48" xlink:href="#Degradado_sin_nombre_21"/></defs><g id="Layer_2" data-name="Layer 2"><g id="Capa_1" data-name="Capa 1"><path class="cls-1" d="M116.28,9.61a12.35,12.35,0,0,0-3.42-.53A6.16,6.16,0,0,0,109,10.17a3.55,3.55,0,0,0-1.42,3,3.56,3.56,0,0,0,1.67,3A21.64,21.64,0,0,0,114,18.5a21.59,21.59,0,0,1,3.89,1.79A8,8,0,0,1,120.54,23a8.18,8.18,0,0,1,1,4.34,8,8,0,0,1-1.2,4.32A8.25,8.25,0,0,1,117,34.68a11.35,11.35,0,0,1-5.17,1.11,16.08,16.08,0,0,1-5.31-.88A18,18,0,0,1,102,32.66l1.77-3.17a14.61,14.61,0,0,0,3.67,2,11.46,11.46,0,0,0,4,.8A7.22,7.22,0,0,0,115.64,31a4.19,4.19,0,0,0,1.79-3.67,4,4,0,0,0-1.5-3.27,16.29,16.29,0,0,0-4.22-2.28,32.48,32.48,0,0,1-4.18-1.86,8.71,8.71,0,0,1-2.86-2.49,6.38,6.38,0,0,1-1.2-4,7.2,7.2,0,0,1,2.45-5.66,9.76,9.76,0,0,1,6.36-2.28,17.55,17.55,0,0,1,8.94,2.38L119.69,11A18.63,18.63,0,0,0,116.28,9.61Z" transform="translate(0 -4.49)"/><path class="cls-1" d="M131.75,19.16l.5-.78L144.43,5.7h5.15L137.27,18.46l13,17h-5.07L134.35,21l-2.52,2.43,0,12H127.8V5.7h4.08v12Z" transform="translate(0 -4.49)"/><path class="cls-1" d="M159.33,5.7V35.46h-4V5.7Z" transform="translate(0 -4.49)"/><path class="cls-1" d="M171.43,5.7V31.59h15.15v3.87H167.44V5.7Z" transform="translate(0 -4.49)"/><path class="cls-1" d="M196.58,5.7V31.59h15.15v3.87H192.59V5.7Z" transform="translate(0 -4.49)"/><path class="cls-1" d="M128.13,80.34l-7-17.78-7.61,17.86-11.86-31h4.66L114.05,71l5.15-13.5L116,49.38h4l8.27,21.2,7.33-21.2h4.28Z" transform="translate(0 -4.49)"/><path class="cls-1" d="M157.19,71.2H145.75L142.58,79h-4l13-31h.24l13,31h-4.61Zm-1.36-3.46-4.24-10.87-4.4,10.87Z" transform="translate(0 -4.49)"/><path class="cls-1" d="M174,49.26V75.15h15.14V79H170V49.26Z" transform="translate(0 -4.49)"/><path class="cls-1" d="M199.14,49.26V75.15h15.15V79H195.14V49.26Z" transform="translate(0 -4.49)"/><path class="cls-1" d="M239.64,49.26v3.83H224.29v9H238V66H224.29v9.18h15.93V79H220.3V49.26Z" transform="translate(0 -4.49)"/><path class="cls-1" d="M264.3,49.26v3.83h-8V79h-4V53.09h-7.78V49.26Z" transform="translate(0 -4.49)"/><path class="cls-2" d="M17.13,43.12,0,30.2V40.37S12.48,46.8,12.2,46.6,17.13,43.12,17.13,43.12Z" transform="translate(0 -4.49)"/><path class="cls-3" d="M17.13,43.1,0,56V45.85s12.48-6.42,12.2-6.22S17.13,43.1,17.13,43.1Z" transform="translate(0 -4.49)"/><polygon class="cls-4" points="34.46 61.95 25.71 77.27 35.99 77.4 39.34 61.12 34.46 61.95"/><polygon class="cls-5" points="51.41 77.37 38.85 55.45 37.33 62.86 43.7 77.37 51.41 77.37"/><polygon class="cls-6" points="25.71 0.13 41.1 32.84 77.12 51.79 77.18 41.45 47.34 27.76 35.99 0.38 25.71 0.13"/><rect y="56.15" width="25.71" height="25.71" transform="translate(25.71 133.52) rotate(-180)"/><rect class="cls-7" x="5.14" y="61.29" width="15.42" height="15.42" transform="translate(25.71 133.52) rotate(-180)"/><circle cx="12.85" cy="64.52" r="2.57"/><rect x="51.41" y="56.15" width="25.71" height="25.71" transform="translate(128.54 133.52) rotate(-180)"/><rect class="cls-7" x="56.56" y="61.29" width="15.42" height="15.42" transform="translate(128.54 133.52) rotate(-180)"/><circle cx="64.27" cy="64.52" r="2.57"/><rect y="4.49" width="25.71" height="25.71" transform="translate(25.71 30.2) rotate(180)"/><rect class="cls-7" x="5.14" y="9.63" width="15.42" height="15.42" transform="translate(25.71 30.2) rotate(180)"/><circle cx="12.85" cy="12.85" r="2.57"/><rect x="10.28" y="36.12" width="30.85" height="5.14"/><rect x="25.71" y="30.97" width="5.14" height="5.14"/><rect x="15.42" y="30.97" width="5.14" height="5.14"/><rect x="30.85" y="25.83" width="5.14" height="10.28"/><rect x="41.13" y="10.53" width="35.99" height="5.14"/><rect x="61.7" y="15.67" width="15.42" height="5.14"/><rect x="71.98" y="0.25" width="5.14" height="5.14"/><rect x="71.98" y="20.82" width="5.14" height="5.14"/><rect x="61.7" y="0.25" width="5.14" height="5.14"/><rect x="67.07" y="5.63" width="5.14" height="5.14"/><rect x="46.27" y="25.96" width="15.42" height="5.14"/><rect x="66.84" y="25.96" width="5.14" height="5.14"/><rect x="61.7" y="30.97" width="5.14" height="5.14"/><rect x="72.04" y="41.32" width="5.14" height="5.14"/><rect x="71.98" y="30.97" width="5.14" height="5.14"/><rect x="61.7" y="20.82" width="5.14" height="5.14"/><rect x="51.41" y="20.82" width="5.14" height="5.14"/><rect x="46.27" y="15.67" width="5.14" height="5.14"/><rect x="51.41" y="0.25" width="5.14" height="5.14"/><rect x="35.99" y="0.25" width="5.14" height="5.14"/><rect x="51.41" y="5.39" width="5.14" height="5.14"/><rect x="46.27" y="5.39" width="5.14" height="5.14"/><rect x="56.56" y="5.39" width="5.14" height="5.14"/><rect x="30.85" y="51.54" width="5.14" height="10.41"/><rect x="41.13" y="51.54" width="5.14" height="10.41"/><rect x="35.99" y="51.54" width="5.14" height="15.55"/><rect x="35.99" y="46.37" width="5.14" height="5.2"/><rect x="41.13" y="67.06" width="5.14" height="5.2"/><rect x="20.57" y="41.26" width="15.42" height="5.14"/><rect x="10.28" y="41.26" width="5.14" height="5.14"/><rect x="25.71" y="46.4" width="5.14" height="5.14"/><rect x="5.14" y="41.26" width="5.14" height="5.14"/><rect x="5.14" y="30.97" width="11.66" height="5.14"/><polygon class="cls-8" points="25.71 0 35.44 20.82 44.37 20.57 35.99 0.25 25.71 0"/><polygon class="cls-9" points="57.03 41.26 77.12 41.26 77.12 51.66 77.12 51.66 57.03 41.26"/></g></g></svg>