<svg xmlns="http://www.w3.org/2000/svg" xmlns:xlink="http://www.w3.org/1999/xlink" viewBox="0 0 980.09 922.55"><defs><style>.cls-1{fill:url(#Degradado_sin_nombre_35);}.cls-2{fill:url(#Degradado_sin_nombre_26);}.cls-3{fill:#fff;}.cls-4{fill:url(#Degradado_sin_nombre_21);}.cls-5{fill:url(#Degradado_sin_nombre_21-2);}</style><linearGradient id="Degradado_sin_nombre_35" x1="117.56" y1="460.8" x2="170.07" y2="369.85" gradientUnits="userSpaceOnUse"><stop offset="0" stop-color="#fff" stop-opacity="0"/><stop offset="0.46" stop-color="#ddd" stop-opacity="0.1"/><stop offset="0.82" stop-color="#737372" stop-opacity="0.43"/><stop offset="1" stop-color="#1d1e1c" stop-opacity="0.7"/></linearGradient><linearGradient id="Degradado_sin_nombre_26" x1="521.16" y1="867.04" x2="427.74" y2="813.11" gradientUnits="userSpaceOnUse"><stop offset="0" stop-color="#fff" stop-opacity="0"/><stop offset="0.65" stop-color="#b8b8b7" stop-opacity="0.09"/><stop offset="1" stop-color="#1d1e1c" stop-opacity="0.3"/></linearGradient><linearGradient id="Degradado_sin_nombre_21" x1="614.99" y1="200.1" x2="342.01" y2="42.5" gradientUnits="userSpaceOnUse"><stop offset="0" stop-color="#fff" stop-opacity="0"/><stop offset="0.62" stop-color="#d3d3d3" stop-opacity="0.08"/><stop offset="0.95" stop-color="#3f403e" stop-opacity="0.34"/><stop offset="1" stop-color="#1d1e1c" stop-opacity="0.4"/></linearGradient><linearGradient id="Degradado_sin_nombre_21-2" x1="799.76" y1="431.87" x2="981.51" y2="613.62" xlink:href="#Degradado_sin_nombre_21"/></defs><g id="Layer_2" data-name="Layer 2"><g id="Capa_1" data-name="Capa 1"><path class="cls-1" d="M264.29,460.49,60.15,306.4V427.66s148.79,76.6,145.38,74.24S264.29,460.49,264.29,460.49Z"/><polygon class="cls-2" points="470.91 738.34 366.55 920.97 489.11 922.55 529.06 728.42 470.91 738.34"/><rect x="60.15" y="615.78" width="306.4" height="306.4" transform="translate(426.71 1537.96) rotate(-180)"/><rect class="cls-3" x="121.43" y="677.06" width="183.84" height="183.84" transform="translate(426.71 1537.96) rotate(-180)"/><circle cx="213.35" cy="768.98" r="30.64"/><rect x="672.95" y="615.78" width="306.4" height="306.4" transform="translate(1652.29 1537.96) rotate(-180)"/><rect class="cls-3" x="734.23" y="677.06" width="183.84" height="183.84" transform="translate(1652.29 1537.96) rotate(-180)"/><circle cx="826.15" cy="768.98" r="30.64"/><rect x="60.15" width="306.4" height="306.4" transform="translate(426.71 306.4) rotate(180)"/><rect class="cls-3" x="121.43" y="61.28" width="183.84" height="183.84" transform="translate(426.71 306.4) rotate(180)"/><circle cx="213.35" cy="153.2" r="30.64"/><rect x="550.39" y="125.55" width="428.96" height="61.28"/><rect x="795.51" y="186.82" width="183.84" height="61.28"/><rect x="918.07" y="2.99" width="61.28" height="61.28"/><rect x="918.07" y="248.1" width="61.28" height="61.28"/><rect x="795.51" y="2.99" width="61.28" height="61.28"/><rect x="859.57" y="67.05" width="61.28" height="61.28"/><rect x="611.67" y="309.38" width="183.84" height="61.28"/><rect x="856.79" y="309.38" width="61.28" height="61.28"/><rect x="795.51" y="369.17" width="61.28" height="61.28"/><rect x="918.81" y="492.47" width="61.28" height="61.28"/><rect x="918.07" y="369.17" width="61.28" height="61.28"/><rect x="795.51" y="248.1" width="61.28" height="61.28"/><rect x="672.95" y="248.1" width="61.28" height="61.28"/><rect x="611.67" y="186.82" width="61.28" height="61.28"/><rect x="672.95" y="2.99" width="61.28" height="61.28"/><rect x="489.11" y="2.99" width="61.28" height="61.28"/><rect x="672.95" y="64.27" width="61.28" height="61.28"/><rect x="611.67" y="64.27" width="61.28" height="61.28"/><rect x="734.23" y="64.27" width="61.28" height="61.28"/><rect x="427.83" y="614.29" width="61.28" height="124.05"/><rect x="550.39" y="614.29" width="61.28" height="124.05"/><rect x="489.11" y="614.29" width="61.28" height="185.33"/><rect x="489.11" y="552.63" width="61.28" height="62.03"/><rect x="550.39" y="799.25" width="61.28" height="62.03"/><rect x="182.71" y="491.73" width="61.28" height="61.28"/><rect x="182.71" y="368.42" width="61.28" height="61.28"/><rect y="368.42" width="61.28" height="61.28"/><rect x="244.37" y="430.08" width="61.28" height="61.28"/><rect x="366.55" y="553.01" width="61.28" height="61.28"/><rect x="121.43" y="491.73" width="61.28" height="61.28"/><polygon class="cls-4" points="366.55 0 482.6 248.1 589 245.12 489.11 2.99 366.55 0"/><polygon class="cls-5" points="739.89 491.73 979.35 491.73 979.35 615.78 979.35 615.78 739.89 491.73"/></g></g></svg>