<svg xmlns="http://www.w3.org/2000/svg" viewBox="0 0 87.38 86.7"><defs><style>.cls-1{fill:#c9c9c9;}</style></defs><g id="Layer_2" data-name="Layer 2"><g id="Capa_1" data-name="Capa 1"><path class="cls-1" d="M65.22,50.42a27.54,27.54,0,0,0-10.5-6.59,16,16,0,1,0-18.09,0A27.7,27.7,0,0,0,18,70h4.32A23.33,23.33,0,0,1,69,70h4.32A27.46,27.46,0,0,0,65.22,50.42Zm-19.54-8.1A11.66,11.66,0,1,1,57.34,30.66,11.67,11.67,0,0,1,45.68,42.32Z"/><path class="cls-1" d="M84.67,83.92H80.83v2.72h3.73a2.82,2.82,0,0,0,2.82-2.82V80.08H84.67Z"/><path class="cls-1" d="M84.67,2.76V6.61h2.71V2.87A2.82,2.82,0,0,0,84.56.05H80.83V2.76Z"/><path class="cls-1" d="M2.71,2.71H6.55V0H2.82A2.82,2.82,0,0,0,0,2.82V6.55H2.71Z"/><path class="cls-1" d="M2.71,84V80.14H0v3.74A2.82,2.82,0,0,0,2.82,86.7H6.55V84Z"/></g></g></svg>